<svg width="252" height="252" viewBox="0 0 252 252" fill="none" xmlns="http://www.w3.org/2000/svg">
<g clip-path="url(#clip0_1_28)">
<path d="M125.998 252C123.125 252 120.264 251.903 117.488 251.717C114.627 251.527 111.754 251.236 108.954 250.852C107.722 250.687 106.607 250.521 105.544 250.347C102.388 249.834 99.1756 249.184 95.9956 248.408C94.9046 248.145 93.8419 247.87 92.8317 247.587C92.4761 247.494 92.1124 247.393 91.7528 247.292C90.2173 246.86 88.7303 246.411 87.3403 245.959C87.2514 245.935 87.1464 245.898 87.0413 245.866C85.7887 245.462 84.4795 245.013 83.1541 244.533C82.0349 244.128 80.9035 243.7 79.6953 243.223C75.7515 241.668 71.8239 239.877 68.0216 237.905C47.8503 227.432 30.851 211.676 18.85 192.341C6.52174 172.452 0 149.512 0 125.998C0 92.3417 13.1081 60.6977 36.904 36.9011C60.6998 13.1045 92.3428 0 125.998 0C159.653 0 191.296 13.1045 215.096 36.9011C238.896 60.6977 252 92.3417 252 125.998C252 145.774 247.547 164.705 238.771 182.263C230.398 199.008 218.143 213.955 203.321 225.484C196.254 230.984 188.601 235.736 180.564 239.599C179.655 240.039 178.681 240.488 177.509 241.017L177.38 241.074C177.238 241.138 177.101 241.199 176.96 241.259C176.079 241.651 175.182 242.035 174.297 242.399L173.897 242.569C173.658 242.67 173.42 242.767 173.178 242.86C169.929 244.173 166.595 245.365 163.262 246.387C160.789 247.155 158.199 247.866 155.56 248.501C145.947 250.82 135.999 251.996 125.998 251.996V252ZM125.998 0.808172C92.5569 0.808172 61.1201 13.8278 37.4778 37.4749C13.8314 61.118 0.808146 92.5558 0.808146 125.998C0.808146 149.362 7.28947 172.153 19.545 191.908C31.4651 211.119 48.3594 226.777 68.4014 237.182C72.1795 239.142 76.0829 240.92 80.0024 242.468C81.2025 242.944 82.3258 243.369 83.437 243.769C84.7583 244.246 86.0554 244.69 87.304 245.094C87.4009 245.126 87.4939 245.155 87.5868 245.183C88.9768 245.636 90.4517 246.08 91.9791 246.513C92.3347 246.614 92.6903 246.715 93.0458 246.808C94.052 247.086 95.1066 247.361 96.1895 247.624C99.3494 248.396 102.538 249.042 105.677 249.551C106.732 249.725 107.839 249.891 109.063 250.056C111.843 250.436 114.696 250.727 117.541 250.913C120.297 251.099 123.141 251.196 125.994 251.196C135.93 251.196 145.814 250.028 155.37 247.725C157.992 247.094 160.566 246.387 163.023 245.628C166.333 244.609 169.65 243.429 172.878 242.12C173.121 242.027 173.351 241.93 173.582 241.833L174.058 241.631C174.911 241.28 175.776 240.908 176.632 240.528C176.778 240.467 176.911 240.407 177.044 240.346L177.174 240.29C178.338 239.764 179.303 239.316 180.208 238.879C188.193 235.041 195.802 230.321 202.82 224.854C217.545 213.394 229.723 198.543 238.043 181.907C246.763 164.463 251.188 145.653 251.188 126.002C251.188 92.5599 238.165 61.122 214.518 37.479C190.88 13.8278 159.439 0.808172 125.998 0.808172Z" fill="#6272A4"/>
<path d="M114.555 71.8626C114.555 71.8626 92.4236 74.3599 90.9972 108.63C89.8092 137.187 87.3767 153.104 98.9938 159.06C103.148 161.19 108.029 161.376 112.466 159.921L159.892 144.327C159.892 144.327 160.607 92.9236 144.185 80.4292C127.764 67.9349 114.559 71.8626 114.559 71.8626H114.555Z" fill="#2F2E41"/>
<path d="M140.698 150.639L116.696 158.531V123.982H138.472L140.698 150.639Z" fill="#F6A6A9"/>
<path d="M173.032 242.488C169.799 243.797 166.502 244.973 163.144 246.007C160.619 246.791 158.057 247.49 155.467 248.113C146.016 250.392 136.144 251.596 125.998 251.596C123.145 251.596 120.317 251.503 117.516 251.313C114.652 251.123 111.815 250.836 109.011 250.452C107.871 250.299 106.74 250.133 105.612 249.947C102.4 249.426 99.2241 248.775 96.0966 248.012C95.042 247.757 93.9914 247.486 92.9448 247.195C92.5852 247.102 92.2256 247.001 91.87 246.9C90.3951 246.484 88.9283 246.044 87.4737 245.571C87.3767 245.543 87.2757 245.51 87.1787 245.478C85.8776 245.058 84.5846 244.613 83.2996 244.149C82.144 243.732 80.9964 243.296 79.8529 242.843L104.788 160.77L105.827 157.355L109.512 145.228L109.54 145.131L109.568 145.043H153.115L153.406 146.461L160.546 181.39L165.69 206.565L170.749 231.307L172.83 241.49L173.032 242.488Z" fill="#DDDEDF"/>
<path d="M116.438 145.063L113.508 157.197L113.1 158.899L112.886 159.784L99.8908 213.652L91.87 246.9C90.3951 246.484 88.9283 246.044 87.4737 245.571C87.3767 245.543 87.2757 245.51 87.1787 245.478C85.8776 245.058 84.5846 244.613 83.2996 244.149C82.144 243.732 80.9964 243.296 79.8529 242.843C75.8687 241.272 71.9856 239.498 68.2156 237.542C76.6324 195.881 85.0816 154.918 86.4554 151.488C87.0575 149.98 88.7425 148.825 91.0255 147.936C91.6841 147.677 92.3953 147.443 93.1428 147.229C98.0442 145.831 104.586 145.317 109.492 145.135C109.508 145.135 109.524 145.135 109.54 145.135C111.496 145.067 113.189 145.047 114.409 145.047C115.629 145.047 116.438 145.067 116.438 145.067V145.063Z" fill="#DDDEDF"/>
<path d="M119.666 133.546C132.875 133.546 143.583 122.838 143.583 109.628C143.583 96.419 132.875 85.7106 119.666 85.7106C106.457 85.7106 95.7491 96.419 95.7491 109.628C95.7491 122.838 106.457 133.546 119.666 133.546Z" fill="#F6A6A9"/>
<path d="M113.128 80.7889C113.128 80.7889 99.9676 134.229 114.603 159.218L93.9873 154.838C93.9873 154.838 85.9988 96.3421 102.065 85.7106L113.132 80.7889H113.128Z" fill="#2F2E41"/>
<path opacity="0.1" d="M109.011 250.452C107.871 250.299 106.74 250.133 105.613 249.947C102.4 249.426 99.2241 248.775 96.0966 248.012C95.042 247.757 93.9914 247.486 92.9448 247.195L94.2904 236.875L97.8826 209.304L99.4989 215.277L100.986 220.776L109.011 250.452Z" fill="#272223"/>
<path opacity="0.1" d="M176.802 240.892C175.921 241.284 175.036 241.663 174.143 242.031C174.01 242.088 173.877 242.144 173.743 242.201C173.509 242.298 173.274 242.395 173.036 242.488C169.804 243.797 166.506 244.973 163.148 246.007C155.172 240.362 149.026 232.499 145.478 223.391L143.587 218.538L131.473 183.447L158.312 211.608L163.217 219.374L170.753 231.303L176.806 240.888L176.802 240.892Z" fill="#272223"/>
<path d="M203.075 225.169C196.068 230.624 188.472 235.352 180.39 239.239C179.384 239.724 178.366 240.193 177.344 240.653C177.162 240.734 176.984 240.815 176.802 240.892C175.921 241.284 175.036 241.664 174.143 242.031C173.703 241.862 173.266 241.68 172.834 241.49C168.401 239.55 164.441 236.6 160.946 233.153C156.251 228.51 152.404 222.958 149.386 217.713C147.899 215.131 146.614 212.622 145.527 210.335L145.511 210.298C142.581 204.104 141.13 199.546 141.13 199.546L137.231 183.532L136.16 179.139L130.067 154.134L127.853 145.043L131.158 144.897L140.189 144.501L150.149 144.061C152.445 144.234 154.683 144.663 156.837 145.333C163.75 147.455 169.763 151.989 173.711 158.228C184.564 175.389 201.943 205.659 203.079 225.169H203.075Z" fill="#DDDEDF"/>
<path d="M89.5951 133.902C94.8359 132.015 108.708 132.007 114.93 134.108C116.139 134.516 116.87 135.745 116.66 137.001L116.413 138.492C116.955 138.411 117.484 138.258 117.985 138.028C119.468 137.349 122.39 136.427 125.339 137.898C127.4 138.925 128.851 140.86 129.36 143.111C130.576 148.493 127.509 151.472 127.509 151.472L123.424 155.306C120.002 158.515 116.268 161.376 112.28 163.841L112.199 163.889L113.654 155.137C114.474 156.579 116.329 157.052 117.739 156.179C121.303 153.973 127.125 149.552 126.418 144.533C125.925 141.034 123.982 140.29 122.115 140.448C120.026 140.626 118.203 141.939 117.31 143.834C117.096 144.287 116.745 144.659 116.308 144.901L115.258 145.475L112.179 164.026C112.041 164.859 111.508 165.578 110.752 165.95C103.511 169.502 95.6966 167.659 92.9933 166.831C92.3751 166.641 91.8457 166.233 91.5144 165.675L90.9325 164.709C90.7305 164.378 90.6093 164.002 90.5689 163.618L87.8818 136.617C87.7646 135.425 88.4717 134.31 89.5991 133.902H89.5951Z" fill="#6C63FF"/>
<path d="M114.312 135.336C114.312 135.971 108.861 136.484 102.137 136.484C95.4137 136.484 89.9628 135.971 89.9628 135.336C89.9628 134.702 95.4137 134.189 102.137 134.189C108.861 134.189 114.312 134.702 114.312 135.336Z" fill="#DEDFE0"/>
<path d="M120.2 160.681C115.617 154.094 115.452 146.348 119.828 143.374C124.204 140.4 131.461 143.325 136.043 149.916C137.91 152.522 139.098 155.545 139.51 158.733L158.55 186.886L144.577 195.735L127.291 167.045C124.426 165.526 121.994 163.344 120.2 160.685V160.681Z" fill="#F6A6A9"/>
<path d="M131.469 183.451L147.204 168.968L178.313 197.937L149.382 217.713L131.469 183.451Z" fill="#DDDEDF"/>
<path opacity="0.1" d="M175.566 201.954L176.802 211.454L168.559 201.954V192.373L175.566 201.954Z" fill="#272223"/>
</g>
<defs>
<clipPath id="clip0_1_28">
<rect width="252" height="252" fill="white"/>
</clipPath>
</defs>
</svg>
