<svg width="367" height="53" viewBox="0 0 367 53" fill="none" xmlns="http://www.w3.org/2000/svg">
<path d="M12.16 41.4C10.2933 41.4 8.65333 41.0533 7.24 40.36C5.85333 39.64 4.77333 38.64 4 37.36C3.25333 36.0533 2.88 34.52 2.88 32.76V20.04C2.88 18.2533 3.25333 16.72 4 15.44C4.77333 14.16 5.85333 13.1733 7.24 12.48C8.65333 11.76 10.2933 11.4 12.16 11.4C14.0533 11.4 15.68 11.76 17.04 12.48C18.4267 13.1733 19.5067 14.16 20.28 15.44C21.0533 16.72 21.44 18.2533 21.44 20.04H16.4C16.4 18.6533 16.0267 17.6 15.28 16.88C14.56 16.16 13.52 15.8 12.16 15.8C10.8 15.8 9.74667 16.16 9 16.88C8.25333 17.6 7.88 18.64 7.88 20V32.76C7.88 34.12 8.25333 35.1733 9 35.92C9.74667 36.64 10.8 37 12.16 37C13.52 37 14.56 36.64 15.28 35.92C16.0267 35.1733 16.4 34.12 16.4 32.76H21.44C21.44 34.4933 21.0533 36.0133 20.28 37.32C19.5067 38.6267 18.4267 39.64 17.04 40.36C15.68 41.0533 14.0533 41.4 12.16 41.4Z" fill="#BD93F9"/>
<path d="M129 41L136.6 11.8H141.44L149 41H145.36L143.44 33.24H134.6L132.68 41H129ZM135.32 30.2H142.68L140.44 21.2C140.013 19.4933 139.68 18.0667 139.44 16.92C139.2 15.7733 139.053 15.0267 139 14.68C138.947 15.0267 138.8 15.7733 138.56 16.92C138.32 18.0667 137.987 19.48 137.56 21.16L135.32 30.2ZM163.144 41.4C161.224 41.4 159.571 41.08 158.184 40.44C156.824 39.8 155.771 38.88 155.024 37.68C154.278 36.48 153.891 35.0533 153.864 33.4H157.464C157.464 34.8667 157.958 36.0267 158.944 36.88C159.958 37.7333 161.358 38.16 163.144 38.16C164.824 38.16 166.131 37.7467 167.064 36.92C168.024 36.0933 168.504 34.9467 168.504 33.48C168.504 32.3067 168.184 31.28 167.544 30.4C166.931 29.52 166.038 28.9067 164.864 28.56L160.904 27.32C158.904 26.7067 157.358 25.68 156.264 24.24C155.198 22.8 154.664 21.1067 154.664 19.16C154.664 17.5867 155.011 16.2267 155.704 15.08C156.424 13.9067 157.424 13 158.704 12.36C159.984 11.6933 161.491 11.36 163.224 11.36C165.784 11.36 167.838 12.08 169.384 13.52C170.931 14.9333 171.718 16.8267 171.744 19.2H168.144C168.144 17.76 167.704 16.64 166.824 15.84C165.971 15.0133 164.758 14.6 163.184 14.6C161.638 14.6 160.424 14.9733 159.544 15.72C158.691 16.4667 158.264 17.5067 158.264 18.84C158.264 20.04 158.584 21.08 159.224 21.96C159.864 22.84 160.784 23.4667 161.984 23.84L165.984 25.12C167.931 25.7333 169.438 26.7733 170.504 28.24C171.571 29.7067 172.104 31.4267 172.104 33.4C172.104 35 171.731 36.4 170.984 37.6C170.238 38.8 169.184 39.7333 167.824 40.4C166.491 41.0667 164.931 41.4 163.144 41.4ZM187.129 41.4C185.209 41.4 183.555 41.08 182.169 40.44C180.809 39.8 179.755 38.88 179.009 37.68C178.262 36.48 177.875 35.0533 177.849 33.4H181.449C181.449 34.8667 181.942 36.0267 182.929 36.88C183.942 37.7333 185.342 38.16 187.129 38.16C188.809 38.16 190.115 37.7467 191.049 36.92C192.009 36.0933 192.489 34.9467 192.489 33.48C192.489 32.3067 192.169 31.28 191.529 30.4C190.915 29.52 190.022 28.9067 188.849 28.56L184.889 27.32C182.889 26.7067 181.342 25.68 180.249 24.24C179.182 22.8 178.649 21.1067 178.649 19.16C178.649 17.5867 178.995 16.2267 179.689 15.08C180.409 13.9067 181.409 13 182.689 12.36C183.969 11.6933 185.475 11.36 187.209 11.36C189.769 11.36 191.822 12.08 193.369 13.52C194.915 14.9333 195.702 16.8267 195.729 19.2H192.129C192.129 17.76 191.689 16.64 190.809 15.84C189.955 15.0133 188.742 14.6 187.169 14.6C185.622 14.6 184.409 14.9733 183.529 15.72C182.675 16.4667 182.249 17.5067 182.249 18.84C182.249 20.04 182.569 21.08 183.209 21.96C183.849 22.84 184.769 23.4667 185.969 23.84L189.969 25.12C191.915 25.7333 193.422 26.7733 194.489 28.24C195.555 29.7067 196.089 31.4267 196.089 33.4C196.089 35 195.715 36.4 194.969 37.6C194.222 38.8 193.169 39.7333 191.809 40.4C190.475 41.0667 188.915 41.4 187.129 41.4ZM203.153 41V37.72H209.113V15.08H203.153V11.8H218.753V15.08H212.793V37.72H218.753V41H203.153ZM235.098 41.4C233.178 41.4 231.524 41.08 230.138 40.44C228.778 39.8 227.724 38.88 226.978 37.68C226.231 36.48 225.844 35.0533 225.818 33.4H229.418C229.418 34.8667 229.911 36.0267 230.898 36.88C231.911 37.7333 233.311 38.16 235.098 38.16C236.778 38.16 238.084 37.7467 239.018 36.92C239.978 36.0933 240.458 34.9467 240.458 33.48C240.458 32.3067 240.138 31.28 239.498 30.4C238.884 29.52 237.991 28.9067 236.818 28.56L232.858 27.32C230.858 26.7067 229.311 25.68 228.217 24.24C227.151 22.8 226.618 21.1067 226.618 19.16C226.618 17.5867 226.964 16.2267 227.658 15.08C228.378 13.9067 229.378 13 230.658 12.36C231.938 11.6933 233.444 11.36 235.178 11.36C237.738 11.36 239.791 12.08 241.338 13.52C242.884 14.9333 243.671 16.8267 243.698 19.2H240.098C240.098 17.76 239.658 16.64 238.778 15.84C237.924 15.0133 236.711 14.6 235.138 14.6C233.591 14.6 232.378 14.9733 231.498 15.72C230.644 16.4667 230.218 17.5067 230.218 18.84C230.218 20.04 230.538 21.08 231.178 21.96C231.818 22.84 232.738 23.4667 233.938 23.84L237.938 25.12C239.884 25.7333 241.391 26.7733 242.458 28.24C243.524 29.7067 244.057 31.4267 244.057 33.4C244.057 35 243.684 36.4 242.938 37.6C242.191 38.8 241.138 39.7333 239.778 40.4C238.444 41.0667 236.884 41.4 235.098 41.4ZM257.122 41V15.04H249.122V11.76H268.722V15.04H260.722V41H257.122ZM272.906 41L280.506 11.8H285.346L292.906 41H289.266L287.346 33.24H278.506L276.586 41H272.906ZM279.226 30.2H286.586L284.346 21.2C283.92 19.4933 283.586 18.0667 283.346 16.92C283.106 15.7733 282.96 15.0267 282.906 14.68C282.853 15.0267 282.706 15.7733 282.466 16.92C282.226 18.0667 281.893 19.48 281.466 21.16L279.226 30.2ZM298.491 41V11.8H303.291L312.211 36.8C312.157 36.1333 312.091 35.32 312.011 34.36C311.957 33.3733 311.904 32.3467 311.851 31.28C311.824 30.1867 311.811 29.16 311.811 28.2V11.8H315.291V41H310.491L301.611 16C301.664 16.64 301.717 17.4533 301.771 18.44C301.824 19.4 301.864 20.4267 301.891 21.52C301.944 22.5867 301.971 23.6133 301.971 24.6V41H298.491ZM329.075 41V15.04H321.075V11.76H340.675V15.04H332.675V41H329.075ZM349.659 47.4L352.859 34.96H358.059L352.859 47.4H349.659ZM354.459 24.6C353.579 24.6 352.859 24.32 352.299 23.76C351.739 23.2 351.459 22.48 351.459 21.6C351.459 20.7467 351.739 20.04 352.299 19.48C352.886 18.8933 353.606 18.6 354.459 18.6H355.259C356.113 18.6 356.819 18.8933 357.379 19.48C357.966 20.04 358.259 20.7467 358.259 21.6C358.259 22.48 357.979 23.2 357.419 23.76C356.859 24.32 356.139 24.6 355.259 24.6H354.459Z" fill="white"/>
<path d="M69 41V11.8H77.68C79.6533 11.8 81.36 12.1733 82.8 12.92C84.2667 13.6667 85.4 14.72 86.2 16.08C87 17.44 87.4 19.0533 87.4 20.92V31.84C87.4 33.68 87 35.2933 86.2 36.68C85.4 38.04 84.2667 39.1067 82.8 39.88C81.36 40.6267 79.6533 41 77.68 41H69ZM74 36.4H77.68C79.12 36.4 80.2667 36 81.12 35.2C81.9733 34.3733 82.4 33.2533 82.4 31.84V20.92C82.4 19.5333 81.9733 18.44 81.12 17.64C80.2667 16.8133 79.12 16.4 77.68 16.4H74V36.4ZM93.5044 41V11.8H111.024V16.16H98.4244V23.76H109.624V28.08H98.4244V36.64H111.024V41H93.5044Z" fill="#BD93F9"/>
<path d="M50 38L62 26L50 14" stroke="#BD93F9" stroke-width="3" stroke-linecap="round" stroke-linejoin="round"/>
<path d="M41 14L29 26L41 38" stroke="#BD93F9" stroke-width="3" stroke-linecap="round" stroke-linejoin="round"/>
</svg>
